<svg width="24" height="24" viewBox="0 0 24 24" fill="none" xmlns="http://www.w3.org/2000/svg">
<path d="M22.8614 7.14291C22.6922 6.99539 22.483 6.90148 22.2603 6.8731C22.0376 6.84473 21.8116 6.88316 21.6108 6.98353L16.9036 9.32728L12.9736 2.79947C12.8726 2.63196 12.73 2.4934 12.5596 2.39721C12.3893 2.30103 12.197 2.25049 12.0014 2.25049C11.8058 2.25049 11.6135 2.30103 11.4432 2.39721C11.2728 2.4934 11.1302 2.63196 11.0292 2.79947L7.09921 9.33009L2.3939 6.98634C2.1936 6.88687 1.96837 6.84876 1.74649 6.87682C1.52461 6.90488 1.31596 6.99784 1.14672 7.14405C0.97748 7.29025 0.855193 7.48319 0.795204 7.69864C0.735216 7.91409 0.740198 8.14246 0.809525 8.35509L4.27828 18.9826C4.31315 19.0894 4.37156 19.1869 4.44919 19.2681C4.52683 19.3493 4.6217 19.412 4.72681 19.4516C4.83191 19.4912 4.94457 19.5066 5.05646 19.4969C5.16836 19.4871 5.27662 19.4523 5.37328 19.3951C5.39671 19.381 7.7939 18.0001 12.0014 18.0001C16.2089 18.0001 18.6061 19.381 18.6277 19.3942C18.7243 19.4519 18.8328 19.4872 18.945 19.4973C19.0571 19.5074 19.1702 19.4921 19.2756 19.4526C19.3811 19.4131 19.4763 19.3503 19.5542 19.2689C19.632 19.1875 19.6906 19.0897 19.7255 18.9826L23.1942 8.35791C23.2655 8.14522 23.272 7.91612 23.2127 7.69976C23.1534 7.4834 23.0312 7.28956 22.8614 7.14291ZM18.5639 17.7029C17.4389 17.2257 15.1964 16.5001 12.0014 16.5001C8.8064 16.5001 6.5639 17.2257 5.4389 17.7029L2.50546 8.71884L6.73078 10.8254C6.98653 10.9515 7.28025 10.9773 7.55407 10.8977C7.82788 10.818 8.06195 10.6387 8.21015 10.3951L12.0014 4.09322L15.7927 10.3932C15.941 10.6364 16.1749 10.8154 16.4484 10.8951C16.722 10.9747 17.0154 10.9492 17.2711 10.8235L21.4973 8.71884L18.5639 17.7029ZM16.4892 14.7029C16.4586 14.8764 16.3679 15.0336 16.233 15.1469C16.0981 15.2602 15.9276 15.3224 15.7514 15.3226C15.7074 15.3225 15.6635 15.3188 15.6202 15.3113C13.2245 14.9001 10.7764 14.9001 8.38078 15.3113C8.18485 15.3459 7.98321 15.3012 7.82023 15.1871C7.65725 15.073 7.54627 14.8988 7.51171 14.7029C7.47715 14.507 7.52184 14.3053 7.63594 14.1424C7.75005 13.9794 7.92422 13.8684 8.12015 13.8338C10.6882 13.3926 13.3127 13.3926 15.8808 13.8338C16.0763 13.8682 16.2503 13.9786 16.3645 14.141C16.4787 14.3034 16.5239 14.5045 16.4902 14.7001L16.4892 14.7029Z" fill="#788396"/>
</svg>
