<svg width="40" height="40" viewBox="0 0 40 40" fill="none" xmlns="http://www.w3.org/2000/svg">
<path d="M38.1002 11.9045C37.8182 11.6587 37.4696 11.5021 37.0984 11.4548C36.7273 11.4075 36.3505 11.4716 36.0159 11.6389L28.1705 15.5451L21.6205 4.66545C21.4522 4.38628 21.2145 4.15534 20.9306 3.99503C20.6468 3.83473 20.3263 3.75049 20.0002 3.75049C19.6742 3.75049 19.3537 3.83473 19.0698 3.99503C18.786 4.15534 18.5483 4.38628 18.3799 4.66545L11.8299 15.5498L3.98774 11.6436C3.6539 11.4778 3.27852 11.4143 2.90872 11.461C2.53892 11.5078 2.19117 11.6627 1.9091 11.9064C1.62704 12.1501 1.42323 12.4717 1.32324 12.8307C1.22326 13.1898 1.23157 13.5704 1.34711 13.9248L7.12836 31.6373C7.18649 31.8153 7.28384 31.9779 7.41323 32.1132C7.54262 32.2484 7.70074 32.3529 7.87591 32.4189C8.05109 32.4849 8.23886 32.5107 8.42534 32.4944C8.61183 32.4782 8.79228 32.4202 8.95336 32.3248C8.99242 32.3014 12.9877 29.9998 20.0002 29.9998C27.0127 29.9998 31.008 32.3014 31.044 32.3233C31.2051 32.4195 31.3859 32.4783 31.5728 32.4952C31.7598 32.512 31.9482 32.4866 32.1239 32.4207C32.2997 32.3548 32.4584 32.2501 32.5882 32.1145C32.718 31.9789 32.8155 31.8158 32.8737 31.6373L38.6549 13.9295C38.7738 13.575 38.7845 13.1932 38.6857 12.8326C38.587 12.472 38.3832 12.1489 38.1002 11.9045ZM30.9377 29.5045C29.0627 28.7092 25.3252 27.4998 20.0002 27.4998C14.6752 27.4998 10.9377 28.7092 9.06274 29.5045L4.17368 14.5311L11.2159 18.042C11.6421 18.2522 12.1317 18.2952 12.588 18.1624C13.0444 18.0297 13.4345 17.7309 13.6815 17.3248L20.0002 6.8217L26.319 17.3217C26.5662 17.7271 26.956 18.0254 27.4119 18.1581C27.8679 18.2908 28.3569 18.2483 28.7831 18.0389L35.8268 14.5311L30.9377 29.5045ZM27.4799 24.5045C27.4289 24.7937 27.2777 25.0557 27.0529 25.2445C26.828 25.4334 26.5439 25.537 26.2502 25.5373C26.1769 25.5372 26.1037 25.531 26.0315 25.5186C22.0388 24.8332 17.9585 24.8332 13.9659 25.5186C13.6393 25.5762 13.3033 25.5017 13.0316 25.3115C12.76 25.1214 12.575 24.8311 12.5174 24.5045C12.4598 24.178 12.5343 23.8419 12.7245 23.5703C12.9146 23.2986 13.2049 23.1137 13.5315 23.0561C17.8116 22.3207 22.1858 22.3207 26.4659 23.0561C26.7918 23.1133 27.0817 23.2974 27.2721 23.568C27.4625 23.8387 27.5378 24.1738 27.4815 24.4998L27.4799 24.5045Z" fill="#EEA537"/>
</svg>
