<svg width="41" height="40" viewBox="0 0 41 40" fill="none" xmlns="http://www.w3.org/2000/svg">
<path d="M38.6002 11.9045C38.3182 11.6587 37.9696 11.5021 37.5984 11.4548C37.2273 11.4075 36.8505 11.4716 36.5159 11.6389L28.6705 15.5451L22.1205 4.66545C21.9522 4.38628 21.7145 4.15534 21.4306 3.99503C21.1468 3.83473 20.8263 3.75049 20.5002 3.75049C20.1742 3.75049 19.8537 3.83473 19.5698 3.99503C19.286 4.15534 19.0483 4.38628 18.8799 4.66545L12.3299 15.5498L4.48774 11.6436C4.1539 11.4778 3.77852 11.4143 3.40872 11.461C3.03892 11.5078 2.69117 11.6627 2.4091 11.9064C2.12704 12.1501 1.92323 12.4717 1.82324 12.8307C1.72326 13.1898 1.73157 13.5704 1.84711 13.9248L7.62836 31.6373C7.68649 31.8153 7.78384 31.9779 7.91323 32.1132C8.04262 32.2484 8.20074 32.3529 8.37591 32.4189C8.55109 32.4849 8.73886 32.5107 8.92534 32.4944C9.11183 32.4782 9.29228 32.4202 9.45336 32.3248C9.49242 32.3014 13.4877 29.9998 20.5002 29.9998C27.5127 29.9998 31.508 32.3014 31.544 32.3233C31.7051 32.4195 31.8859 32.4783 32.0728 32.4952C32.2598 32.512 32.4482 32.4866 32.6239 32.4207C32.7997 32.3548 32.9584 32.2501 33.0882 32.1145C33.218 31.9789 33.3155 31.8158 33.3737 31.6373L39.1549 13.9295C39.2738 13.575 39.2845 13.1932 39.1857 12.8326C39.087 12.472 38.8832 12.1489 38.6002 11.9045ZM31.4377 29.5045C29.5627 28.7092 25.8252 27.4998 20.5002 27.4998C15.1752 27.4998 11.4377 28.7092 9.56274 29.5045L4.67368 14.5311L11.7159 18.042C12.1421 18.2522 12.6317 18.2952 13.088 18.1624C13.5444 18.0297 13.9345 17.7309 14.1815 17.3248L20.5002 6.8217L26.819 17.3217C27.0662 17.7271 27.456 18.0254 27.9119 18.1581C28.3679 18.2908 28.8569 18.2483 29.2831 18.0389L36.3268 14.5311L31.4377 29.5045ZM27.9799 24.5045C27.9289 24.7937 27.7777 25.0557 27.5529 25.2445C27.328 25.4334 27.0439 25.537 26.7502 25.5373C26.6769 25.5372 26.6037 25.531 26.5315 25.5186C22.5388 24.8332 18.4585 24.8332 14.4659 25.5186C14.1393 25.5762 13.8033 25.5017 13.5316 25.3115C13.26 25.1214 13.075 24.8311 13.0174 24.5045C12.9598 24.178 13.0343 23.8419 13.2245 23.5703C13.4146 23.2986 13.7049 23.1137 14.0315 23.0561C18.3116 22.3207 22.6858 22.3207 26.9659 23.0561C27.2918 23.1133 27.5817 23.2974 27.7721 23.568C27.9625 23.8387 28.0378 24.1738 27.9815 24.4998L27.9799 24.5045Z" fill="#38C04E"/>
</svg>
