<svg width="36" height="36" viewBox="0 0 36 36" fill="none" xmlns="http://www.w3.org/2000/svg">
<rect width="35.5" height="35.6049" rx="8" fill="#E7EFFF"/>
<path fill-rule="evenodd" clip-rule="evenodd" d="M17.744 11.8688C15.9946 9.8236 13.0773 9.27344 10.8854 11.1463C8.69344 13.0191 8.38485 16.1504 10.1062 18.3654C11.5373 20.207 15.8686 24.0911 17.2881 25.3482C17.4469 25.4889 17.5263 25.5592 17.6189 25.5868C17.6998 25.6109 17.7882 25.6109 17.8691 25.5868C17.9617 25.5592 18.0411 25.4889 18.1999 25.3482C19.6195 24.0911 23.9507 20.207 25.3818 18.3654C27.1032 16.1504 26.8323 12.9994 24.6027 11.1463C22.3731 9.29314 19.4934 9.8236 17.744 11.8688Z" fill="#496AB1" stroke="#496AB1" stroke-width="2" stroke-linecap="round" stroke-linejoin="round"/>
</svg>
