<svg width="72" height="72" viewBox="0 0 72 72" fill="none" xmlns="http://www.w3.org/2000/svg">
<path d="M36 6L42.0359 21.6933C42.8819 23.8929 43.3049 24.9928 43.9627 25.9179C44.5458 26.7379 45.2621 27.4542 46.0821 28.0373C47.0072 28.6951 48.1071 29.1181 50.3067 29.9641L66 36L50.3067 42.0359C48.1071 42.8819 47.0072 43.3049 46.0821 43.9627C45.2621 44.5458 44.5458 45.2621 43.9627 46.0821C43.3049 47.0072 42.8819 48.1071 42.0359 50.3067L36 66L29.9641 50.3067C29.1181 48.1071 28.6951 47.0072 28.0373 46.0821C27.4542 45.2621 26.7379 44.5458 25.9179 43.9627C24.9928 43.3049 23.8929 42.8819 21.6933 42.0359L6 36L21.6933 29.9641C23.8929 29.1181 24.9928 28.6951 25.9179 28.0373C26.7379 27.4542 27.4542 26.7379 28.0373 25.9179C28.6951 24.9928 29.1181 23.8929 29.9641 21.6933L36 6Z" stroke="white" stroke-width="6" stroke-linecap="round" stroke-linejoin="round"/>
</svg>
