<svg width="30" height="30" viewBox="0 0 30 30" fill="none" xmlns="http://www.w3.org/2000/svg">
<path d="M14.9998 1.6665L13.2645 8.60782C12.9259 9.9623 12.7566 10.6395 12.404 11.1906C12.092 11.6781 11.6781 12.092 11.1906 12.404C10.6395 12.7566 9.9623 12.9259 8.60783 13.2645L1.6665 14.9998L8.60782 16.7352C9.9623 17.0738 10.6395 17.2431 11.1906 17.5957C11.6781 17.9076 12.092 18.3216 12.404 18.8091C12.7566 19.3601 12.9259 20.0374 13.2645 21.3918L14.9998 28.3332L16.7352 21.3919C17.0738 20.0374 17.2431 19.3601 17.5957 18.8091C17.9076 18.3216 18.3216 17.9076 18.8091 17.5957C19.3601 17.2431 20.0374 17.0738 21.3919 16.7352L28.3332 14.9998L21.3919 13.2645C20.0374 12.9259 19.3601 12.7566 18.8091 12.404C18.3216 12.092 17.9076 11.6781 17.5957 11.1906C17.2431 10.6395 17.0738 9.9623 16.7352 8.60783L14.9998 1.6665Z" stroke="#667085" stroke-width="2" stroke-linecap="round" stroke-linejoin="round"/>
</svg>
