<svg width="20" height="20" viewBox="0 0 20 20" fill="none" xmlns="http://www.w3.org/2000/svg">
<path d="M2.5 7.49997H17.4999M2.5 12.4999H17.4999M6.49997 2.5H13.4999C14.9001 2.5 15.6001 2.5 16.1349 2.77248C16.6053 3.01216 16.9877 3.39461 17.2274 3.86501C17.4999 4.39979 17.4999 5.09985 17.4999 6.49997V13.4999C17.4999 14.9001 17.4999 15.6001 17.2274 16.1349C16.9877 16.6053 16.6053 16.9877 16.1349 17.2274C15.6001 17.4999 14.9001 17.4999 13.4999 17.4999H6.49997C5.09985 17.4999 4.39979 17.4999 3.86501 17.2274C3.39461 16.9877 3.01216 16.6053 2.77248 16.1349C2.5 15.6001 2.5 14.9001 2.5 13.4999V6.49997C2.5 5.09985 2.5 4.39979 2.77248 3.86501C3.01216 3.39461 3.39461 3.01216 3.86501 2.77248C4.39979 2.5 5.09985 2.5 6.49997 2.5Z" stroke="#667085" stroke-width="1.66666" stroke-linecap="round" stroke-linejoin="round"/>
</svg>
