<svg width="32" height="33" viewBox="0 0 32 33" fill="none" xmlns="http://www.w3.org/2000/svg">
<path d="M22.6666 13.9383V11.2716C22.6666 7.58975 19.6818 4.60498 15.9999 4.60498C12.318 4.60498 9.33325 7.58975 9.33325 11.2716V13.9383M15.9999 19.9383V22.605M11.7332 28.605H20.2666C22.5068 28.605 23.6269 28.605 24.4825 28.169C25.2352 27.7855 25.8471 27.1736 26.2306 26.4209C26.6666 25.5653 26.6666 24.4452 26.6666 22.205V20.3383C26.6666 18.0981 26.6666 16.978 26.2306 16.1223C25.8471 15.3697 25.2352 14.7578 24.4825 14.3743C23.6269 13.9383 22.5068 13.9383 20.2666 13.9383H11.7332C9.49304 13.9383 8.37294 13.9383 7.51729 14.3743C6.76464 14.7578 6.15272 15.3697 5.76923 16.1223C5.33325 16.978 5.33325 18.0981 5.33325 20.3383V22.205C5.33325 24.4452 5.33325 25.5653 5.76923 26.4209C6.15272 27.1736 6.76464 27.7855 7.51729 28.169C8.37294 28.605 9.49304 28.605 11.7332 28.605Z" stroke="#1D2939" stroke-width="2.66667" stroke-linecap="round" stroke-linejoin="round"/>
</svg>
