<svg width="19" height="20" viewBox="0 0 19 20" fill="none" xmlns="http://www.w3.org/2000/svg">
<path d="M9.49999 12.3021C10.8807 12.3021 12 11.1828 12 9.80208C12 8.42137 10.8807 7.30208 9.49999 7.30208C8.11928 7.30208 6.99999 8.42137 6.99999 9.80208C6.99999 11.1828 8.11928 12.3021 9.49999 12.3021Z" stroke="#496AB1" stroke-width="2" stroke-linecap="round" stroke-linejoin="round"/>
<path d="M15.1061 12.0748C15.0052 12.3033 14.9751 12.5568 15.0197 12.8025C15.0642 13.0483 15.1814 13.2751 15.3561 13.4536L15.4015 13.4991C15.5424 13.6398 15.6541 13.8069 15.7304 13.9908C15.8066 14.1747 15.8459 14.3719 15.8459 14.571C15.8459 14.7701 15.8066 14.9673 15.7304 15.1512C15.6541 15.3352 15.5424 15.5023 15.4015 15.643C15.2608 15.7839 15.0937 15.8956 14.9097 15.9719C14.7258 16.0481 14.5287 16.0874 14.3295 16.0874C14.1304 16.0874 13.9333 16.0481 13.7493 15.9719C13.5654 15.8956 13.3983 15.7839 13.2576 15.643L13.2121 15.5975C13.0336 15.4229 12.8068 15.3057 12.561 15.2612C12.3153 15.2166 12.0618 15.2467 11.8333 15.3475C11.6093 15.4436 11.4182 15.603 11.2836 15.8063C11.149 16.0095 11.0767 16.2477 11.0757 16.4915V16.6203C11.0757 17.0221 10.9161 17.4075 10.632 17.6916C10.3478 17.9758 9.96244 18.1354 9.5606 18.1354C9.15875 18.1354 8.77337 17.9758 8.48922 17.6916C8.20508 17.4075 8.04544 17.0221 8.04544 16.6203V16.5521C8.03958 16.3013 7.95841 16.0581 7.8125 15.8541C7.66658 15.6501 7.46267 15.4947 7.22726 15.4081C6.99877 15.3073 6.7453 15.2772 6.49954 15.3218C6.25379 15.3663 6.02702 15.4835 5.84847 15.6581L5.80302 15.7036C5.6623 15.8445 5.4952 15.9562 5.31126 16.0325C5.12733 16.1087 4.93016 16.148 4.73105 16.148C4.53194 16.148 4.33477 16.1087 4.15084 16.0325C3.9669 15.9562 3.7998 15.8445 3.65908 15.7036C3.51821 15.5629 3.40645 15.3958 3.3302 15.2118C3.25395 15.0279 3.21471 14.8307 3.21471 14.6316C3.21471 14.4325 3.25395 14.2354 3.3302 14.0514C3.40645 13.8675 3.51821 13.7004 3.65908 13.5597L3.70454 13.5142C3.87918 13.3357 3.99634 13.1089 4.0409 12.8631C4.08546 12.6174 4.05538 12.3639 3.95454 12.1354C3.8585 11.9113 3.69905 11.7203 3.4958 11.5857C3.29255 11.451 3.05437 11.3788 2.8106 11.3778H2.68181C2.27996 11.3778 1.89458 11.2182 1.61043 10.9341C1.32629 10.6499 1.16666 10.2645 1.16666 9.86269C1.16666 9.46085 1.32629 9.07546 1.61043 8.79132C1.89458 8.50717 2.27996 8.34754 2.68181 8.34754H2.74999C3.00074 8.34167 3.24393 8.26051 3.44794 8.11459C3.65195 7.96868 3.80735 7.76476 3.89393 7.52936C3.99477 7.30086 4.02486 7.04739 3.9803 6.80164C3.93574 6.55588 3.81858 6.32911 3.64393 6.15057L3.59847 6.10511C3.4576 5.9644 3.34585 5.79729 3.2696 5.61336C3.19335 5.42942 3.1541 5.23226 3.1541 5.03314C3.1541 4.83403 3.19335 4.63687 3.2696 4.45293C3.34585 4.269 3.4576 4.10189 3.59847 3.96117C3.73919 3.8203 3.9063 3.70854 4.09023 3.6323C4.27417 3.55605 4.47133 3.5168 4.67044 3.5168C4.86956 3.5168 5.06672 3.55605 5.25066 3.6323C5.43459 3.70854 5.6017 3.8203 5.74241 3.96117L5.78787 4.00663C5.96641 4.18128 6.19318 4.29844 6.43894 4.343C6.68469 4.38756 6.93816 4.35747 7.16666 4.25663H7.22726C7.45133 4.1606 7.64243 4.00114 7.77703 3.79789C7.91163 3.59464 7.98387 3.35647 7.98484 3.11269V2.9839C7.98484 2.58206 8.14447 2.19667 8.42862 1.91253C8.71276 1.62838 9.09815 1.46875 9.49999 1.46875C9.90183 1.46875 10.2872 1.62838 10.5714 1.91253C10.8555 2.19667 11.0151 2.58206 11.0151 2.9839V3.05208C11.0161 3.29586 11.0883 3.53403 11.223 3.73728C11.3576 3.94053 11.5487 4.09999 11.7727 4.19602C12.0012 4.29687 12.2547 4.32695 12.5004 4.28239C12.7462 4.23783 12.973 4.12067 13.1515 3.94602L13.197 3.90057C13.3377 3.75969 13.5048 3.64794 13.6887 3.57169C13.8727 3.49544 14.0698 3.45619 14.2689 3.45619C14.468 3.45619 14.6652 3.49544 14.8491 3.57169C15.0331 3.64794 15.2002 3.75969 15.3409 3.90057C15.4818 4.04129 15.5935 4.20839 15.6698 4.39233C15.746 4.57626 15.7853 4.77342 15.7853 4.97254C15.7853 5.17165 15.746 5.36881 15.6698 5.55275C15.5935 5.73669 15.4818 5.90379 15.3409 6.04451L15.2954 6.08996C15.1208 6.26851 15.0036 6.49528 14.9591 6.74103C14.9145 6.98679 14.9446 7.24025 15.0454 7.46875V7.52936C15.1415 7.75342 15.3009 7.94452 15.5042 8.07912C15.7074 8.21373 15.9456 8.28596 16.1894 8.28693H16.3182C16.72 8.28693 17.1054 8.44656 17.3895 8.73071C17.6737 9.01486 17.8333 9.40024 17.8333 9.80208C17.8333 10.2039 17.6737 10.5893 17.3895 10.8735C17.1054 11.1576 16.72 11.3172 16.3182 11.3172H16.25C16.0062 11.3182 15.768 11.3904 15.5648 11.525C15.3615 11.6596 15.2021 11.8507 15.1061 12.0748Z" stroke="#496AB1" stroke-width="2" stroke-linecap="round" stroke-linejoin="round"/>
</svg>
